<svg xmlns="http://www.w3.org/2000/svg" xmlns:xlink="http://www.w3.org/1999/xlink" version="1.1" width="256" height="256" viewBox="0 0 256 256" xml:space="preserve">
<desc>Created with Fabric.js 1.7.22</desc>
<defs>
</defs>
<g transform="translate(128 128) scale(0.72 0.72)" style="">
	<g style="stroke: none; stroke-width: 0; stroke-dasharray: none; stroke-linecap: butt; stroke-linejoin: miter; stroke-miterlimit: 10; fill: none; fill-rule: nonzero; opacity: 1;" transform="translate(-175.05 -175.05000000000004) scale(3.89 3.89)" >
	<path d="M 84.532 90 H 5.467 v -1 c 0 -21.798 17.734 -39.532 39.533 -39.532 c 21.798 0 39.532 17.734 39.532 39.532 V 90 z M 7.48 88 H 82.52 C 81.986 67.766 65.36 51.468 45 51.468 C 24.639 51.468 8.013 67.766 7.48 88 z" style="stroke: none; stroke-width: 1; stroke-dasharray: none; stroke-linecap: butt; stroke-linejoin: miter; stroke-miterlimit: 10; fill: rgb(0,0,0); fill-rule: nonzero; opacity: 1;" transform=" matrix(1 0 0 1 0 0) " stroke-linecap="round" />
	<path d="M 45 42.901 c -11.828 0 -21.45 -9.623 -21.45 -21.451 C 23.55 9.623 33.172 0 45 0 c 11.828 0 21.45 9.623 21.45 21.45 C 66.45 33.278 56.828 42.901 45 42.901 z M 45 2 c -10.725 0 -19.45 8.725 -19.45 19.45 S 34.275 40.901 45 40.901 c 10.725 0 19.45 -8.726 19.45 -19.451 S 55.725 2 45 2 z" style="stroke: none; stroke-width: 1; stroke-dasharray: none; stroke-linecap: butt; stroke-linejoin: miter; stroke-miterlimit: 10; fill: rgb(0,0,0); fill-rule: nonzero; opacity: 1;" transform=" matrix(1 0 0 1 0 0) " stroke-linecap="round" />
</g>
</g>
</svg>